<svg width="20" height="21" viewBox="0 0 20 21" fill="none" xmlns="http://www.w3.org/2000/svg">
<path d="M13.125 1.75C16.2109 1.75 18.75 4.28906 18.75 7.375C18.75 10.5 16.2109 13 13.125 13C12.3828 13 11.6406 12.8828 11.0156 12.6094L9.375 14.25H7.5V16.75H5V19.25H1.25V16.125L7.89062 9.48438C7.61719 8.85938 7.5 8.11719 7.5 7.375C7.5 4.28906 10 1.75 13.125 1.75ZM13.125 0.5C9.29688 0.5 6.25 3.58594 6.25 7.375C6.25 8 6.28906 8.58594 6.44531 9.13281L0.273438 15.3438C0.117188 15.5 0 15.8125 0 16.0078V19.5625C0 20.1094 0.390625 20.5 0.9375 20.5H5.3125C5.82031 20.5 6.25 20.1094 6.25 19.5625V18H7.8125C8.32031 18 8.75 17.6094 8.75 17.0625V15.5H9.49219C9.72656 15.5 9.96094 15.4219 10.1562 15.2266L11.3672 14.0547C11.9141 14.2109 12.5 14.25 13.125 14.25C16.9141 14.25 20 11.2031 20 7.375C20 3.58594 16.9141 0.5 13.125 0.5ZM15 4.71875C15.4297 4.71875 15.7812 5.07031 15.7812 5.5C15.7812 5.96875 15.4297 6.28125 15 6.28125C14.5312 6.28125 14.2188 5.96875 14.2188 5.5C14.2188 5.07031 14.5312 4.71875 15 4.71875ZM15 3.625C13.9453 3.625 13.125 4.48438 13.125 5.5C13.125 6.55469 13.9453 7.375 15 7.375C16.0156 7.375 16.875 6.55469 16.875 5.5C16.875 4.48438 16.0156 3.625 15 3.625Z" fill="#5E49FF"/>
</svg>
