<svg width="1440" height="788" viewBox="0 0 1440 788" fill="none" xmlns="http://www.w3.org/2000/svg">
<path d="M13.821 539.74L-274.265 706.066C-325.401 735.589 -390.744 718.08 -420.267 666.945C-449.79 615.81 -432.281 550.467 -381.146 520.944L-93.0592 354.618C-41.9241 325.095 23.4187 342.603 52.9416 393.738C82.4645 444.874 64.9561 510.217 13.821 539.74Z" stroke="#DADADA"/>
<path d="M990.357 -24.0691L274.585 389.182C223.45 418.705 158.107 401.196 128.584 350.061C99.0611 298.926 116.57 233.583 167.705 204.06L883.477 -209.191C934.611 -238.714 999.953 -221.206 1029.48 -170.072C1058.79 -118.809 1041.49 -53.591 990.357 -24.0691Z" stroke="#DADADA"/>
<path d="M935.601 403.218L219.829 816.469C168.694 845.992 103.351 828.484 73.8286 777.349C44.3057 726.213 61.8143 660.871 112.949 631.348L828.721 218.097C879.856 188.574 945.198 206.082 974.721 257.216C1004.03 308.478 986.519 373.821 935.601 403.218Z" stroke="#DADADA"/>
<path d="M1473.27 486.446L757.497 899.697C706.362 929.22 641.019 911.711 611.496 860.575C581.973 809.44 599.482 744.098 650.617 714.575L1366.39 301.324C1417.52 271.801 1482.87 289.309 1512.39 340.444C1541.91 391.579 1524.4 456.923 1473.27 486.446Z" stroke="#DADADA"/>
<path d="M245.475 16.3789L-165.086 253.416C-216.221 282.939 -281.564 265.431 -311.087 214.296C-340.61 163.16 -323.101 97.8171 -271.966 68.2942L138.594 -168.743C189.729 -198.266 255.073 -180.757 284.596 -129.622C314.119 -78.487 296.61 -13.144 245.475 16.3789Z" stroke="#DADADA"/>
<path d="M1294.13 196.223L1206.34 246.909C1155.2 276.432 1089.86 258.923 1060.33 207.788C1030.81 156.653 1048.32 91.3103 1099.46 61.7874L1187.25 11.1009C1238.38 -18.422 1303.73 -0.913663 1333.25 50.2215C1362.77 101.357 1345.26 166.7 1294.13 196.223Z" stroke="#DADADA"/>
<path d="M1502.6 863.175L1375.79 936.388C1324.65 965.911 1259.31 948.403 1229.78 897.268C1200.26 846.133 1217.77 780.789 1268.91 751.266L1395.72 678.053C1446.85 648.53 1512.19 666.038 1541.72 717.172C1571.02 768.435 1553.73 833.653 1502.6 863.175Z" stroke="#DADADA"/>
</svg>
