<svg width="123" height="24" viewBox="0 0 123 24" fill="none" xmlns="http://www.w3.org/2000/svg">
<path d="M3.89506 20.8879C3.9055 21.4988 4.43024 21.9765 5.04112 21.9765H10.7088C11.3197 21.9765 11.847 21.4988 11.8549 20.8879C11.8653 20.2692 11.3641 19.7627 10.7479 19.7627H4.99936C4.38325 19.7627 3.88462 20.2665 3.89506 20.8879Z" fill="#5E49FF"/>
<path d="M7.74561 17.314C7.74561 17.9249 8.26773 18.4209 8.90995 18.4209H14.9509C15.5931 18.4209 16.1153 17.9249 16.1153 17.314C16.1153 16.7031 15.5931 16.2071 14.9509 16.2071H8.90995C8.26512 16.2071 7.74561 16.7031 7.74561 17.314Z" fill="#5E49FF"/>
<path d="M4.58948 4.23992H1.11996C0.50124 4.23992 0 3.73868 0 3.11996C0 2.50124 0.50124 2 1.11996 2H4.58948C5.2082 2 5.70943 2.50124 5.70943 3.11996C5.70682 3.73868 5.2082 4.23992 4.58948 4.23992Z" fill="#3BD42D"/>
<path d="M7.93641 7.75905H4.46688C3.84816 7.75905 3.34692 7.25781 3.34692 6.63909C3.34692 6.02037 3.84816 5.51913 4.46688 5.51913H7.93641C8.55512 5.51913 9.05636 6.02037 9.05636 6.63909C9.05636 7.25781 8.55512 7.75905 7.93641 7.75905Z" fill="#3BD42D"/>
<path d="M19.6972 7.75905H11.0769C10.4582 7.75905 9.95691 7.25781 9.95691 6.63909C9.95691 6.02037 10.4582 5.51913 11.0769 5.51913H19.6972C20.3159 5.51913 20.8171 6.02037 20.8171 6.63909C20.8145 7.25781 20.3159 7.75905 19.6972 7.75905Z" fill="#25CBD3"/>
<path d="M16.9744 11.333H8.35409C7.73537 11.333 7.23413 10.8318 7.23413 10.2131C7.23413 9.59435 7.73537 9.09311 8.35409 9.09311H16.9744C17.5931 9.09311 18.0943 9.59435 18.0943 10.2131C18.0917 10.8318 17.5905 11.333 16.9744 11.333Z" fill="#5E49FF"/>
<path d="M21.3967 14.8887H12.7765C12.1577 14.8887 11.6565 14.3874 11.6565 13.7687C11.6565 13.15 12.1577 12.6487 12.7765 12.6487H21.3967C22.0155 12.6487 22.5167 13.15 22.5167 13.7687C22.5167 14.3874 22.0155 14.8887 21.3967 14.8887Z" fill="#25CBD3"/>
<path d="M12.758 4.23992H7.81344C7.19472 4.23992 6.69348 3.73868 6.69348 3.11996C6.69348 2.50124 7.19472 2 7.81344 2H12.758C13.3767 2 13.8779 2.50124 13.8779 3.11996C13.8779 3.73868 13.3767 4.23992 12.758 4.23992Z" fill="#5E49FF"/>
<path d="M17.008 4.23992H15.9506C15.3319 4.23992 14.8307 3.73868 14.8307 3.11996C14.8307 2.50124 15.3319 2 15.9506 2H17.008C17.6267 2 18.1279 2.50124 18.1279 3.11996C18.1279 3.73868 17.6267 4.23992 17.008 4.23992Z" fill="#25CBD3"/>
<path d="M21.2923 11.333H20.2349C19.6162 11.333 19.115 10.8318 19.115 10.2131C19.115 9.59435 19.6162 9.09311 20.2349 9.09311H21.2923C21.911 9.09311 22.4122 9.59435 22.4122 10.2131C22.4122 10.8318 21.911 11.333 21.2923 11.333Z" fill="#25CBD3"/>
<path d="M19.697 18.4444H18.1698C17.551 18.4444 17.0498 17.9431 17.0498 17.3244C17.0498 16.7057 17.551 16.2044 18.1698 16.2044H19.697C20.3157 16.2044 20.8169 16.7057 20.8169 17.3244C20.8143 17.9431 20.3157 18.4444 19.697 18.4444Z" fill="#25CBD3"/>
<path d="M1.98669 21.9843H1.11996C0.50124 21.9843 0 21.4831 0 20.8643C0 20.2456 0.50124 19.7444 1.11996 19.7444H1.98669C2.6054 19.7444 3.10664 20.2456 3.10664 20.8643C3.10664 21.4831 2.6054 21.9843 1.98669 21.9843Z" fill="#3BD42D"/>
<path d="M17.0082 22H13.9041C13.2854 22 12.7842 21.4987 12.7842 20.88C12.7842 20.2613 13.2854 19.7601 13.9041 19.7601H17.0082C17.6269 19.7601 18.1281 20.2613 18.1281 20.88C18.1281 21.4987 17.6269 22 17.0082 22Z" fill="#25CBD3"/>
<path d="M37.11 5.49H32.142V18H37.11C40.926 18 43.554 15.57 43.554 11.736C43.554 7.902 40.926 5.49 37.11 5.49ZM37.02 15.336H35.148V8.154H37.02C39.108 8.154 40.512 9.414 40.512 11.772C40.512 14.076 39.108 15.336 37.02 15.336ZM47.6509 14.148H54.5269C54.5629 13.896 54.5989 13.536 54.5989 13.068C54.5989 10.728 52.7629 8.28 49.6669 8.28C46.9309 8.28 44.7349 10.53 44.7349 13.266C44.7349 16.092 46.7149 18.234 49.8469 18.234C52.2049 18.234 53.3929 17.28 54.1489 16.29L51.8989 14.796C51.5209 15.426 50.9989 15.786 49.9369 15.786C48.8029 15.786 47.9569 15.21 47.6509 14.148ZM47.6149 12.276C47.8669 11.124 48.6409 10.53 49.7389 10.53C50.8369 10.53 51.5569 11.196 51.8089 12.276H47.6149ZM61.9121 8.514L59.8781 15.048L57.8621 8.514H54.7661L58.1321 18H61.6421L65.0081 8.514H61.9121ZM72.6927 8.514V9.504C72.0267 8.838 71.1267 8.478 69.9567 8.478C67.2027 8.478 65.2227 10.422 65.2227 13.266C65.2227 16.11 67.2027 18.234 69.9567 18.234C71.1267 18.234 72.0267 17.838 72.6927 17.136V18H75.4647V8.514H72.6927ZM70.3887 15.588C69.1107 15.588 68.2107 14.616 68.2107 13.266C68.2107 11.916 69.1287 10.926 70.3887 10.926C71.7027 10.926 72.5847 11.88 72.5847 13.266C72.5847 14.634 71.7027 15.588 70.3887 15.588ZM84.4036 8.514V9.378C83.7376 8.694 82.8376 8.298 81.6676 8.298C78.9316 8.298 76.9516 10.422 76.9516 12.978C76.9516 15.534 78.9136 17.604 81.6676 17.604C82.8376 17.604 83.7376 17.208 84.4036 16.524V16.794C84.4036 18.09 83.4856 18.954 81.9016 18.954C80.8396 18.954 79.9756 18.576 79.5976 17.712L77.0596 18.702C77.6896 20.304 79.1656 21.456 81.8836 21.456C85.2496 21.456 87.1756 19.422 87.1756 16.506V8.514H84.4036ZM82.0636 15.318C80.8396 15.318 79.9216 14.346 79.9216 13.122C79.9216 11.898 80.8396 10.926 82.0636 10.926C83.3416 10.926 84.2236 11.88 84.2236 13.122C84.2236 14.364 83.3416 15.318 82.0636 15.318ZM91.8848 9.324V8.514H89.0588V18H92.0648V12.924C92.0648 11.682 92.9288 11.088 94.5128 11.088V8.28C93.4508 8.28 92.5328 8.694 91.8848 9.324ZM102.641 8.514V9.504C101.975 8.838 101.075 8.478 99.9049 8.478C97.1509 8.478 95.1709 10.422 95.1709 13.266C95.1709 16.11 97.1509 18.234 99.9049 18.234C101.075 18.234 101.975 17.838 102.641 17.136V18H105.413V8.514H102.641ZM100.337 15.588C99.0589 15.588 98.1589 14.616 98.1589 13.266C98.1589 11.916 99.0769 10.926 100.337 10.926C101.651 10.926 102.533 11.88 102.533 13.266C102.533 14.634 101.651 15.588 100.337 15.588ZM118.546 8.28C117.088 8.28 116.08 8.784 115.522 9.522C115 8.712 114.118 8.28 112.75 8.28C111.616 8.28 110.716 8.694 110.122 9.288V8.514H107.296V17.982H110.302V12.438C110.302 11.736 110.752 10.944 111.796 10.944C112.768 10.944 113.218 11.754 113.218 12.654V17.982H116.224V12.438C116.224 11.754 116.674 10.944 117.718 10.944C118.69 10.944 119.14 11.754 119.14 12.654V17.982H122.146V12.078C122.146 10.008 120.94 8.28 118.546 8.28Z" fill="#333333"/>
</svg>
