<svg width="123" height="77" viewBox="0 0 123 77" fill="none" xmlns="http://www.w3.org/2000/svg">
<path d="M46.7899 37.7758C46.8108 38.9975 47.8603 39.953 49.0821 39.953H60.4174C61.6392 39.953 62.6939 38.9975 62.7095 37.7758C62.7304 36.5383 61.7279 35.5254 60.4957 35.5254H48.9985C47.7663 35.5254 46.769 36.5331 46.7899 37.7758Z" fill="#5E49FF"/>
<path d="M54.4913 30.6279C54.4913 31.8496 55.5356 32.8417 56.82 32.8417H68.902C70.1864 32.8417 71.2307 31.8496 71.2307 30.6279C71.2307 29.4061 70.1864 28.4141 68.902 28.4141H56.82C55.5304 28.4141 54.4913 29.4061 54.4913 30.6279Z" fill="#5E49FF"/>
<path d="M48.179 4.47983H41.2399C40.0025 4.47983 39 3.47736 39 2.23992C39 1.00248 40.0025 0 41.2399 0H48.179C49.4164 0 50.4189 1.00248 50.4189 2.23992C50.4136 3.47736 49.4164 4.47983 48.179 4.47983Z" fill="#3BD42D"/>
<path d="M54.8727 11.5181H47.9336C46.6962 11.5181 45.6937 10.5156 45.6937 9.27815C45.6937 8.04072 46.6962 7.03824 47.9336 7.03824H54.8727C56.1101 7.03824 57.1126 8.04072 57.1126 9.27815C57.1126 10.5156 56.1101 11.5181 54.8727 11.5181Z" fill="#3BD42D"/>
<path d="M78.3941 11.5181H61.1536C59.9161 11.5181 58.9136 10.5156 58.9136 9.27815C58.9136 8.04072 59.9161 7.03824 61.1536 7.03824H78.3941C79.6316 7.03824 80.634 8.04072 80.634 9.27815C80.6288 10.5156 79.6316 11.5181 78.3941 11.5181Z" fill="#25CBD3"/>
<path d="M72.9486 18.666H55.708C54.4706 18.666 53.4681 17.6635 53.4681 16.4261C53.4681 15.1886 54.4706 14.1861 55.708 14.1861H72.9486C74.186 14.1861 75.1885 15.1886 75.1885 16.4261C75.1833 17.6635 74.1808 18.666 72.9486 18.666Z" fill="#5E49FF"/>
<path d="M81.7935 25.7773H64.5529C63.3155 25.7773 62.313 24.7748 62.313 23.5374C62.313 22.3 63.3155 21.2975 64.5529 21.2975H81.7935C83.0309 21.2975 84.0334 22.3 84.0334 23.5374C84.0334 24.7748 83.0309 25.7773 81.7935 25.7773Z" fill="#25CBD3"/>
<path d="M64.5161 4.47983H54.6271C53.3896 4.47983 52.3871 3.47736 52.3871 2.23992C52.3871 1.00248 53.3896 0 54.6271 0H64.5161C65.7535 0 66.756 1.00248 66.756 2.23992C66.756 3.47736 65.7535 4.47983 64.5161 4.47983Z" fill="#5E49FF"/>
<path d="M73.0161 4.47983H70.9015C69.664 4.47983 68.6616 3.47736 68.6616 2.23992C68.6616 1.00248 69.664 0 70.9015 0H73.0161C74.2535 0 75.256 1.00248 75.256 2.23992C75.256 3.47736 74.2535 4.47983 73.0161 4.47983Z" fill="#25CBD3"/>
<path d="M81.5845 18.666H79.4699C78.2325 18.666 77.23 17.6635 77.23 16.4261C77.23 15.1886 78.2325 14.1861 79.4699 14.1861H81.5845C82.8219 14.1861 83.8244 15.1886 83.8244 16.4261C83.8244 17.6635 82.8219 18.666 81.5845 18.666Z" fill="#25CBD3"/>
<path d="M78.3941 32.8887H75.3397C74.1022 32.8887 73.0997 31.8862 73.0997 30.6488C73.0997 29.4113 74.1022 28.4088 75.3397 28.4088H78.3941C79.6315 28.4088 80.634 29.4113 80.634 30.6488C80.6288 31.8862 79.6315 32.8887 78.3941 32.8887Z" fill="#25CBD3"/>
<path d="M42.9734 39.9686H41.2399C40.0025 39.9686 39 38.9662 39 37.7287C39 36.4913 40.0025 35.4888 41.2399 35.4888H42.9734C44.2108 35.4888 45.2133 36.4913 45.2133 37.7287C45.2133 38.9662 44.2108 39.9686 42.9734 39.9686Z" fill="#3BD42D"/>
<path d="M73.0162 40H66.8081C65.5707 40 64.5682 38.9975 64.5682 37.7601C64.5682 36.5227 65.5707 35.5202 66.8081 35.5202H73.0162C74.2537 35.5202 75.2561 36.5227 75.2561 37.7601C75.2561 38.9975 74.2537 40 73.0162 40Z" fill="#25CBD3"/>
<path d="M8.31328 55.32H1.68928V72H8.31328C13.4013 72 16.9053 68.76 16.9053 63.648C16.9053 58.536 13.4013 55.32 8.31328 55.32ZM8.19328 68.448H5.69728V58.872H8.19328C10.9773 58.872 12.8493 60.552 12.8493 63.696C12.8493 66.768 10.9773 68.448 8.19328 68.448ZM22.3679 66.864H31.5359C31.5839 66.528 31.6319 66.048 31.6319 65.424C31.6319 62.304 29.1839 59.04 25.0559 59.04C21.4079 59.04 18.4799 62.04 18.4799 65.688C18.4799 69.456 21.1199 72.312 25.2959 72.312C28.4399 72.312 30.0239 71.04 31.0319 69.72L28.0319 67.728C27.5279 68.568 26.8319 69.048 25.4159 69.048C23.9039 69.048 22.7759 68.28 22.3679 66.864ZM22.3199 64.368C22.6559 62.832 23.6879 62.04 25.1519 62.04C26.6159 62.04 27.5759 62.928 27.9119 64.368H22.3199ZM41.3828 59.352L38.6708 68.064L35.9828 59.352H31.8548L36.3428 72H41.0228L45.5108 59.352H41.3828ZM55.757 59.352V60.672C54.869 59.784 53.669 59.304 52.109 59.304C48.437 59.304 45.797 61.896 45.797 65.688C45.797 69.48 48.437 72.312 52.109 72.312C53.669 72.312 54.869 71.784 55.757 70.848V72H59.453V59.352H55.757ZM52.685 68.784C50.981 68.784 49.781 67.488 49.781 65.688C49.781 63.888 51.005 62.568 52.685 62.568C54.437 62.568 55.613 63.84 55.613 65.688C55.613 67.512 54.437 68.784 52.685 68.784ZM71.3714 59.352V60.504C70.4834 59.592 69.2834 59.064 67.7234 59.064C64.0754 59.064 61.4354 61.896 61.4354 65.304C61.4354 68.712 64.0514 71.472 67.7234 71.472C69.2834 71.472 70.4834 70.944 71.3714 70.032V70.392C71.3714 72.12 70.1474 73.272 68.0354 73.272C66.6194 73.272 65.4674 72.768 64.9634 71.616L61.5794 72.936C62.4194 75.072 64.3874 76.608 68.0114 76.608C72.4994 76.608 75.0674 73.896 75.0674 70.008V59.352H71.3714ZM68.2514 68.424C66.6194 68.424 65.3954 67.128 65.3954 65.496C65.3954 63.864 66.6194 62.568 68.2514 62.568C69.9554 62.568 71.1314 63.84 71.1314 65.496C71.1314 67.152 69.9554 68.424 68.2514 68.424ZM81.3464 60.432V59.352H77.5784V72H81.5864V65.232C81.5864 63.576 82.7384 62.784 84.8504 62.784V59.04C83.4344 59.04 82.2104 59.592 81.3464 60.432ZM95.6879 59.352V60.672C94.7999 59.784 93.5999 59.304 92.0399 59.304C88.3679 59.304 85.7279 61.896 85.7279 65.688C85.7279 69.48 88.3679 72.312 92.0399 72.312C93.5999 72.312 94.7999 71.784 95.6879 70.848V72H99.3839V59.352H95.6879ZM92.6159 68.784C90.9119 68.784 89.7119 67.488 89.7119 65.688C89.7119 63.888 90.9359 62.568 92.6159 62.568C94.3679 62.568 95.5439 63.84 95.5439 65.688C95.5439 67.512 94.3679 68.784 92.6159 68.784ZM116.894 59.04C114.95 59.04 113.606 59.712 112.862 60.696C112.166 59.616 110.99 59.04 109.166 59.04C107.654 59.04 106.454 59.592 105.662 60.384V59.352H101.894V71.976H105.902V64.584C105.902 63.648 106.502 62.592 107.894 62.592C109.19 62.592 109.79 63.672 109.79 64.872V71.976H113.798V64.584C113.798 63.672 114.398 62.592 115.79 62.592C117.086 62.592 117.686 63.672 117.686 64.872V71.976H121.694V64.104C121.694 61.344 120.086 59.04 116.894 59.04Z" fill="#333333"/>
</svg>
